# xmcd
# 
# Track frame offsets:
#     150
#     16102
#     29156
#     50557
#     65547
#     94773
#     114974
#     129016
#     145062
#     162850
#     179165
#     197807
#     221503
#     241313
#     259172
# 
# Disc length: 3635
# 
# Revision: 2
# Processed by: cddbd v1.5.1PL2 Copyright (c) Steve Scherf et al.
# Submitted via: BonkEnc v1.0beta4
# 
DISCID=d40e310f
DTITLE=Various Artist - Audiophile Bossa Voices (15 Brazilian Love Tracks)
DYEAR=2004
DGENRE=Jazz
TTITLE0=Summer Samba (So nice) - Bebel Gilberto
TTITLE1=Photograph - Jane Duboc
TTITLE2=Desafinado - Rossa Passos and Ron Carter
TTITLE3=A Day In The Life Of A Fool - Rosemary Clooney
TTITLE4=Meditation - Jean Frye Sidwell
TTITLE5=O Barquinho (My Little Boat) - Karrin Allyson
TTITLE6=Quando A Lembranca Me Vem - Miucha
TTITLE7=Tomara - Miucha Feat. Bebel Gilberto
TTITLE8=Once I Loved - Rosemary Clooney
TTITLE9=Depois De Tanto Amor - Ana De Hollanda
TTITLE10=Fly Me To The Moon - Ana Caram
TTITLE11=Constelacao - Jazzinho
TTITLE12=Gailos Abertas - Ramon Leal and Beatrice Binotti
TTITLE13=It's Only Love - Tania Maria
TTITLE14=Smoke In The City - Marcelo Salazar Feat. Itamarah Koorax
EXTD=YEAR: 2004
EXTT0=
EXTT1=
EXTT2=
EXTT3=
EXTT4=
EXTT5=
EXTT6=
EXTT7=
EXTT8=
EXTT9=
EXTT10=
EXTT11=
EXTT12=
EXTT13=
EXTT14=
PLAYORDER=
